<svg width="609" height="590" viewBox="0 0 609 590" fill="none" xmlns="http://www.w3.org/2000/svg">
<mask id="mask0_27_547" style="mask-type:luminance" maskUnits="userSpaceOnUse" x="2" y="511" width="234" height="78">
<path d="M11.8118 512.536L11.1614 513.094L10.5575 515.703L11.7065 521.054L9.83961 526.631L11.6026 533.344L10.1391 534.803L6.74877 537.468L5.3893 541.227L4.40068 548.34L2.11017 550.094L6.42962 554.854L5.82651 559.618L4.84854 561.51L4.98765 561.901L226.187 588.886L228.037 586.242L227.057 582.835L229.88 574.374L232.489 569.382L230.291 566.145L231.328 559.269L233.086 556.295L232.287 547.26L233.66 545.195L235.453 543.82L229.874 541.282L229.067 538.259L11.8917 511.16L11.8118 512.536Z" fill="white"/>
</mask>
<g mask="url(#mask0_27_547)">
<path d="M11.8118 512.536L11.1614 513.094L10.5575 515.703L11.7065 521.054L9.83961 526.631L11.6026 533.344L10.1391 534.803L6.74877 537.468L5.3893 541.227L4.40068 548.34L2.11017 550.094L6.42962 554.854L5.82651 559.618L4.84854 561.51L4.98765 561.901L226.187 588.886L228.037 586.242L227.057 582.835L229.88 574.374L232.489 569.382L230.291 566.145L231.328 559.269L233.086 556.295L232.287 547.26L233.66 545.195L235.453 543.82L229.874 541.282L229.067 538.259L11.8917 511.16L11.8118 512.536Z" fill="#FFD3DA"/>
<path fill-rule="evenodd" clip-rule="evenodd" d="M153.269 520.975L83.6662 575.479L88.5052 576.069L158.108 521.566L153.269 520.975Z" fill="white"/>
<path fill-rule="evenodd" clip-rule="evenodd" d="M122.514 517.224L52.9108 571.727L57.7498 572.317L127.353 517.814L122.514 517.224Z" fill="white"/>
<path fill-rule="evenodd" clip-rule="evenodd" d="M91.7578 513.472L22.1549 567.975L26.994 568.565L96.5969 514.062L91.7578 513.472Z" fill="white"/>
<path fill-rule="evenodd" clip-rule="evenodd" d="M61.0023 509.72L-6.94987 562.94L-7.12827 564.403L-3.75068 564.815L65.8414 510.31L61.0023 509.72Z" fill="white"/>
<path fill-rule="evenodd" clip-rule="evenodd" d="M243.919 561.333L206.688 590.487L211.527 591.077L243.329 566.175L243.919 561.333Z" fill="white"/>
<path fill-rule="evenodd" clip-rule="evenodd" d="M247.441 532.464L245.536 532.231L175.933 586.735L180.772 587.325L247.083 535.399L247.441 532.464Z" fill="white"/>
<path fill-rule="evenodd" clip-rule="evenodd" d="M214.78 528.479L145.177 582.983L150.016 583.573L219.619 529.07L214.78 528.479Z" fill="white"/>
<path fill-rule="evenodd" clip-rule="evenodd" d="M184.024 524.727L114.422 579.231L119.261 579.821L188.863 525.318L184.024 524.727Z" fill="white"/>
<path fill-rule="evenodd" clip-rule="evenodd" d="M-3.78623 537.007L35.0858 506.558L30.2468 505.968L-3.19553 532.165L-3.78623 537.007Z" fill="white"/>
</g>
<mask id="mask1_27_547" style="mask-type:luminance" maskUnits="userSpaceOnUse" x="394" y="1" width="211" height="78">
<path d="M594.516 76.917L595.122 76.4288L595.751 74.1188L594.897 69.2695L596.763 64.3305L595.401 58.2488L596.765 56.9992L599.905 54.7248L601.255 51.3897L602.381 45.0521L604.502 43.547L600.763 39.1378L601.476 34.877L602.418 33.2224L602.306 32.8671L404.165 1.09479L402.412 3.40311L403.18 6.49259L400.347 13.985L397.843 18.3753L399.712 21.3538L398.55 27.487L396.87 30.0848L397.285 38.227L395.983 40.0222L394.321 41.2042L399.257 43.6723L399.882 46.4115L594.398 78.1482L594.516 76.917Z" fill="white"/>
</mask>
<g mask="url(#mask1_27_547)">
<path d="M594.516 76.917L595.122 76.4288L595.751 74.1188L594.897 69.2695L596.763 64.3305L595.401 58.2488L596.765 56.9992L599.905 54.7248L601.255 51.3897L602.381 45.0521L604.502 43.547L600.763 39.1378L601.476 34.877L602.418 33.2224L602.306 32.8671L404.165 1.09479L402.412 3.40311L403.18 6.49259L400.347 13.985L397.843 18.3753L399.712 21.3538L398.55 27.487L396.87 30.0848L397.285 38.227L395.983 40.0222L394.321 41.2042L399.257 43.6723L399.882 46.4115L594.398 78.1482L594.516 76.917Z" fill="#76D1FF"/>
<path d="M473.259 17.5515L468.515 19.6579L465.728 22.0285L468.645 26.9111L472.084 28.167C472.084 28.167 473.517 25.6189 474.007 22.9989C474.497 20.379 473.259 17.5515 473.259 17.5515Z" fill="white"/>
<path d="M420.525 19.1552L415.781 21.2617L412.994 23.6323L415.911 28.5149L419.35 29.7707C419.35 29.7707 420.783 27.2226 421.273 24.6027C421.772 21.9843 420.525 19.1552 420.525 19.1552Z" fill="white"/>
<path d="M411.727 35.0069L410.465 40.0229L410.615 43.678L416.257 44.4043L419.37 42.4827C419.37 42.4827 418.242 39.7818 416.485 37.7739C414.728 35.7659 411.728 34.9972 411.728 34.9972L411.727 35.0069Z" fill="white"/>
<path d="M400.886 13.2282L396.142 15.3347L393.354 17.7053L396.272 22.5879L399.711 23.8437C399.711 23.8437 401.144 21.2956 401.633 18.6757C402.133 16.0573 400.886 13.2282 400.886 13.2282Z" fill="white"/>
<path d="M562.324 52.3893L565.84 53.7864L570.999 54.9212L572.735 52.2828C572.735 52.2828 571.21 49.8854 569.962 49.2886C568.715 48.6918 565.347 49.3521 564.529 49.9253C563.711 50.4986 562.333 52.3908 562.333 52.3908L562.324 52.3893Z" fill="white"/>
<path d="M464.827 6.74467C465.222 7.13538 466.75 8.46177 465.86 9.97596C464.971 11.4902 464.784 12.224 463.993 12.6924C463.201 13.1608 460.161 14.0721 460.161 14.0721C460.161 14.0721 460.096 11.8692 460.574 10.8744C461.052 9.87953 462.838 7.92373 462.838 7.92373C462.838 7.92373 464.378 6.31561 464.817 6.74311L464.827 6.74467Z" fill="white"/>
<path d="M485.718 35.6906C485.056 34.6717 481.803 34.9835 480.723 35.2667C479.644 35.5499 478.947 37.6605 478.947 37.6605C478.947 37.6605 480.638 40.9476 480.69 41.1841C480.741 41.4205 483.017 40.8728 484.591 40.7381C486.164 40.6035 488.374 40.0948 488.374 40.0948C488.374 40.0948 486.941 37.5535 485.729 35.6825L485.718 35.6906Z" fill="white"/>
<path d="M493.387 22.9119C492.555 21.8956 490.904 22.5138 489.761 22.3899C488.617 22.266 487.529 22.1016 487.138 23.2393C486.738 24.3657 487.188 25.7176 487.411 25.9418C487.633 26.166 491.024 26.2931 491.746 26.7561C492.467 27.219 494.717 24.5438 493.385 22.9216L493.387 22.9119Z" fill="white"/>
<path d="M448.117 43.4017C448.117 43.4017 442.619 43.4526 439.903 45.0707C437.186 46.6887 436.231 50.4742 436.231 50.4742L443.181 51.172C443.181 51.172 445.635 51.3174 447.484 49.9571C449.335 48.5872 450.21 45.1162 448.116 43.4114L448.117 43.4017Z" fill="white"/>
<path d="M401.904 -1.80738C401.904 -1.80738 398.756 -1.77645 397.206 -0.85437C395.656 0.067707 395.098 2.24032 395.098 2.24032L399.073 2.6395C399.073 2.6395 400.481 2.72645 401.542 1.94408C402.602 1.16171 403.099 -0.822131 401.903 -1.79771L401.904 -1.80738Z" fill="white"/>
<path d="M461.678 37.1732C461.678 37.1732 460.37 34.5426 459.407 34.7156C458.434 34.8871 455.778 36.0684 455.778 36.0684L456.468 39.0262C456.468 39.0262 458.122 39.4999 459.624 39.0065C461.125 38.5131 461.669 37.1716 461.669 37.1716L461.678 37.1732Z" fill="white"/>
<path d="M417.087 2.81967C417.087 2.81967 415.778 0.189086 414.815 0.362105C413.843 0.533569 411.186 1.71484 411.186 1.71484L411.876 4.67271C411.876 4.67271 413.531 5.14639 415.032 4.653C416.534 4.15961 417.077 2.81812 417.077 2.81812L417.087 2.81967Z" fill="white"/>
<path d="M427.393 9.76006C426.687 8.57551 424.67 9.37304 423.892 9.69478C423.114 10.0165 421.903 11.6775 421.903 11.6775C421.903 11.6775 423.853 14.401 424.762 14.1301C425.671 13.8591 427.383 9.75851 427.383 9.75851L427.393 9.76006Z" fill="white"/>
<path d="M452.755 17.7657C453.504 18.7986 453.891 21.1027 452.915 22.226C451.939 23.3493 450.942 24.4792 450.942 24.4792L449.69 25.2208C449.69 25.2208 446.709 22.0345 447.202 21.0718C447.694 20.1091 452.753 17.7753 452.753 17.7753L452.755 17.7657Z" fill="white"/>
<path d="M439.881 17.9732C438.609 17.9676 436.511 16.907 436.187 15.4561C435.862 14.0053 435.531 12.5335 435.531 12.5335L435.674 11.088C435.674 11.088 440.012 10.5832 440.493 11.5532C440.984 12.5248 439.881 17.9732 439.881 17.9732Z" fill="white"/>
<path d="M439.404 30.4963C439.95 31.2485 440.237 32.9315 439.519 33.749C438.802 34.5664 438.084 35.3839 438.084 35.3839L437.172 35.9222C437.172 35.9222 434.998 33.5994 435.36 32.8935C435.722 32.1876 439.406 30.4866 439.406 30.4866L439.404 30.4963Z" fill="white"/>
<path d="M557.378 50.6636L552.65 52.7925L549.87 55.184L552.811 60.0407L556.263 61.2788C556.263 61.2788 557.678 58.7179 558.156 56.1061C558.637 53.4845 557.368 50.6621 557.368 50.6621L557.378 50.6636Z" fill="white"/>
<path d="M504.652 52.5863L499.924 54.7152L497.153 57.1082L500.095 61.9649L503.546 63.203C503.546 63.203 504.962 60.6421 505.44 58.0303C505.92 55.4087 504.652 52.5863 504.652 52.5863Z" fill="white"/>
<path d="M565.389 67.3852L564.155 72.4156L564.324 76.0738L569.971 76.771L573.076 74.8383C573.076 74.8383 571.936 72.1455 570.167 70.1554C568.399 68.1555 565.386 67.4046 565.386 67.4046L565.389 67.3852Z" fill="white"/>
<path d="M545.904 70.3622C545.904 70.3622 544.584 67.7397 543.62 67.9224C542.656 68.1051 540.008 69.2976 540.008 69.2976L540.718 72.2489C540.718 72.2489 542.374 72.7129 543.877 72.2098C545.38 71.7068 545.914 70.3637 545.914 70.3637L545.904 70.3622Z" fill="white"/>
<path d="M511.468 43.1431C510.753 41.957 508.743 42.7657 507.964 43.0971C507.194 43.4301 505.993 45.0927 505.993 45.0927C505.993 45.0927 507.964 47.8096 508.865 47.5275C509.775 47.2468 511.458 43.1415 511.458 43.1415L511.468 43.1431Z" fill="white"/>
<path d="M536.873 51.0067C537.624 52.03 538.03 54.3372 537.054 55.4605C536.078 56.5838 535.101 57.7168 535.101 57.7168L533.856 58.4696C533.856 58.4696 530.853 55.2996 531.348 54.3272C531.842 53.3548 536.875 50.9971 536.875 50.9971L536.873 51.0067Z" fill="white"/>
<path d="M519.891 58.9088C518.617 58.9129 516.518 57.862 516.184 56.4096C515.85 54.9572 515.517 53.4951 515.517 53.4951L515.65 52.048C515.65 52.048 519.983 51.5126 520.474 52.4842C520.964 53.4558 519.893 58.8992 519.893 58.8992L519.891 58.9088Z" fill="white"/>
<path d="M523.591 63.8079C524.138 64.5505 524.435 66.235 523.727 67.054C523.019 67.873 522.299 68.7001 522.299 68.7001L521.396 69.2497C521.396 69.2497 519.211 66.935 519.572 66.2291C519.934 65.5232 523.602 63.7998 523.602 63.7998L523.591 63.8079Z" fill="white"/>
<path d="M542.62 20.8757L537.876 22.9821L535.089 25.3527L538.006 30.2353L541.443 31.5008C541.443 31.5008 542.877 28.9528 543.366 26.3328C543.866 23.7144 542.619 20.8854 542.619 20.8854L542.62 20.8757Z" fill="white"/>
<path d="M398.796 36.247L394.052 38.3535L391.265 40.7241L394.182 45.6067L397.62 46.8722C397.62 46.8722 399.053 44.3241 399.543 41.7041C400.042 39.0857 398.795 36.2567 398.795 36.2567L398.796 36.247Z" fill="white"/>
<path d="M573.932 33.0894L572.67 38.1054L572.82 41.7606L578.463 42.4868L581.576 40.5652C581.576 40.5652 580.447 37.8644 578.691 35.8564C576.934 33.8485 573.934 33.0797 573.934 33.0797L573.932 33.0894Z" fill="white"/>
<path d="M504.799 13.4617C505.194 13.8524 506.722 15.1788 505.833 16.693C504.943 18.2072 504.756 18.9411 503.965 19.4095C503.173 19.8778 500.133 20.7891 500.133 20.7891C500.133 20.7891 500.068 18.5863 500.546 17.5914C501.024 16.5966 502.81 14.6408 502.81 14.6408C502.81 14.6408 504.36 13.0342 504.789 13.4602L504.799 13.4617Z" fill="white"/>
<path d="M555.079 39.0148C554.416 37.9959 551.164 38.3077 550.084 38.5909C549.004 38.8741 548.306 40.9944 548.306 40.9944C548.306 40.9944 549.997 44.2815 550.048 44.518C550.1 44.7544 552.376 44.2067 553.949 44.072C555.523 43.9374 557.733 43.4287 557.733 43.4287C557.733 43.4287 556.3 40.8874 555.088 39.0164L555.079 39.0148Z" fill="white"/>
<path d="M559.624 27.2929C558.792 26.2766 557.141 26.8948 555.997 26.7709C554.853 26.647 553.766 26.4825 553.375 27.6202C552.975 28.7467 553.425 30.0986 553.647 30.3228C553.87 30.547 557.261 30.6741 557.983 31.137C558.704 31.6 560.953 28.9248 559.622 27.3026L559.624 27.2929Z" fill="white"/>
<path d="M525.02 21.8334C525.02 21.8334 519.522 21.8842 516.805 23.5023C514.089 25.1204 513.134 28.9058 513.134 28.9058L520.084 29.6036C520.084 29.6036 522.537 29.749 524.387 28.3887C526.238 27.0188 527.113 23.5479 525.019 21.843L525.02 21.8334Z" fill="white"/>
<path d="M531.039 40.4975C531.039 40.4975 529.74 37.8685 528.768 38.04C527.795 38.2114 525.139 39.3927 525.139 39.3927L525.829 42.3506C525.829 42.3506 527.483 42.8242 528.985 42.3309C530.486 41.8375 531.03 40.496 531.03 40.496L531.039 40.4975Z" fill="white"/>
<path d="M481.217 52.4694C481.967 53.5023 482.353 55.8064 481.377 56.9297C480.402 58.053 479.405 59.1829 479.405 59.1829L478.152 59.9245C478.152 59.9245 475.172 56.7382 475.664 55.7755C476.157 54.8128 481.216 52.4791 481.216 52.4791L481.217 52.4694Z" fill="white"/>
<path d="M468.343 52.6769C467.071 52.6713 464.973 51.6107 464.649 50.1599C464.324 48.709 463.993 47.2372 463.993 47.2372L464.136 45.7917C464.136 45.7917 468.474 45.2869 468.955 46.2569C469.445 47.2285 468.343 52.6769 468.343 52.6769Z" fill="white"/>
<path d="M598.795 42.3541L594.051 44.4605L591.264 46.8311L594.181 51.7137L597.62 52.9696C597.62 52.9696 599.053 50.4215 599.543 47.8015C600.032 45.1816 598.795 42.3541 598.795 42.3541Z" fill="white"/>
<path d="M598.706 28.5198C599.101 28.9105 600.629 30.2369 599.739 31.7511C598.85 33.2653 598.663 33.9992 597.871 34.4676C597.08 34.9359 594.04 35.8472 594.04 35.8472C594.04 35.8472 593.975 33.6444 594.453 32.6495C594.931 31.6547 596.716 29.6989 596.716 29.6989C596.716 29.6989 598.257 28.0908 598.696 28.5183L598.706 28.5198Z" fill="white"/>
<path d="M587.213 61.9856C587.213 61.9856 585.904 59.355 584.941 59.528C583.969 59.6995 581.312 60.8807 581.312 60.8807L582.002 63.8386C582.002 63.8386 583.657 64.3123 585.158 63.8189C586.66 63.3255 587.203 61.984 587.203 61.984L587.213 61.9856Z" fill="white"/>
<path d="M593.877 77.4892C592.605 77.4836 590.507 76.423 590.183 74.9721C589.859 73.5213 589.528 72.0495 589.528 72.0495L589.67 70.604C589.67 70.604 594.008 70.0992 594.489 71.0692C594.98 72.0408 593.877 77.4892 593.877 77.4892Z" fill="white"/>
<path d="M503.494 35.7433C504.04 36.4955 504.327 38.1785 503.609 38.9959C502.891 39.8134 502.173 40.6308 502.173 40.6308L501.261 41.1691C501.261 41.1691 499.087 38.8463 499.449 38.1404C499.811 37.4345 503.495 35.7336 503.495 35.7336L503.494 35.7433Z" fill="white"/>
</g>
<path d="M577.314 443.629L581.682 461.772C581.85 462.612 582.187 463.452 582.523 464.124C583.699 466.308 585.883 467.82 588.235 468.492L606.383 472.859L588.235 477.227C586.555 477.563 585.043 478.403 584.035 479.579C582.859 480.755 582.018 482.267 581.682 483.779L577.314 501.922L572.945 483.779C572.609 482.099 571.769 480.587 570.592 479.579C569.416 478.571 567.904 477.563 566.392 477.227L548.245 472.859L566.392 468.492C568.072 468.156 569.584 467.316 570.592 466.14C571.769 464.964 572.609 463.452 572.945 461.772L577.314 443.629Z" fill="#80CFFF" stroke="#262626" stroke-width="4.3" stroke-linecap="round" stroke-linejoin="round"/>
<path d="M147.529 4.57141L151.898 22.7147C152.066 23.5547 152.402 24.3946 152.738 25.0666C153.915 27.2505 156.099 28.7625 158.451 29.4344L176.598 33.8023L158.451 38.1701C156.771 38.5061 155.259 39.346 154.251 40.522C153.242 41.698 152.234 43.2099 151.898 44.7218L147.529 62.8651L143.161 44.7218C142.825 43.0419 141.985 41.53 140.808 40.522C139.632 39.346 138.12 38.5061 136.608 38.1701L118.46 33.8023L136.608 29.4344C138.288 29.0984 139.8 28.2585 140.808 27.0825C141.985 25.9066 142.825 24.3946 143.161 22.7147L147.529 4.57141Z" fill="#FF6CAF" stroke="#262626" stroke-width="4.3" stroke-linecap="round" stroke-linejoin="round"/>
<path d="M48.9162 350L53.6046 358.833L63.4837 356.833L59.4651 366L67 372.5L57.2883 375L56.9535 385L48.9162 379L40.8791 385L40.5442 375L31 372.5L38.5349 366L34.5163 356.833L44.3953 358.833L48.9162 350Z" fill="#FF9F69" stroke="#262626" stroke-width="4.3" stroke-linecap="round" stroke-linejoin="round"/>
</svg>
