<svg width="32" height="28" viewBox="0 0 32 28" fill="none" xmlns="http://www.w3.org/2000/svg">
<path d="M6.00237 6.00289C6.00237 5.78439 6.00237 5.61757 6.00237 5.45076C6.00237 4.05986 5.99885 2.66897 6.00354 1.27807C6.00706 0.362946 6.36829 0.00229994 7.27956 0.0011252C13.0838 -4.95451e-05 18.888 -4.95451e-05 24.691 0.0011252C25.6328 0.0011252 25.9881 0.358247 25.9905 1.30274C25.9952 2.67836 25.9905 4.05281 25.9917 5.42844C25.9917 5.59878 25.9917 5.76794 25.9917 6.00406C26.6332 6.00406 27.2372 5.99936 27.8412 6.00406C29.5382 6.02051 30.8365 6.74767 31.5555 8.29599C31.8287 8.88336 31.9472 9.58468 31.9659 10.239C32.0199 12.081 31.9953 13.9265 31.9824 15.7709C31.9659 18.0933 30.5234 19.7321 28.3021 19.9765C28.213 19.9859 28.1203 19.9776 28.0065 19.9776V16.0234C28.1344 15.9823 28.2693 15.953 28.3912 15.8966C28.7853 15.711 28.9823 15.3832 28.9624 14.958C28.9413 14.5127 28.7044 14.192 28.2634 14.0687C28.0863 14.0193 27.8951 14.0041 27.7098 14.0041C19.8931 14.0005 12.0775 14.0005 4.26076 14.0017C3.58405 14.0017 3.18647 14.2566 3.06684 14.7512C2.91789 15.3656 3.224 15.7955 3.99218 16.0293V19.9459C2.48161 20.0881 0.752894 18.9004 0.277908 17.3533C0.124271 16.854 0.0304461 16.316 0.0222365 15.7944C-0.00825645 13.9348 -0.00121962 12.0751 0.0140269 10.2155C0.0304461 8.11625 1.21733 6.5327 3.15949 6.12154C3.86552 5.97234 4.61729 6.03578 5.34795 6.00641C5.54615 5.99819 5.74553 6.00524 6.00354 6.00524L6.00237 6.00289ZM26.9886 9.98057C27.521 9.97939 27.9714 9.53416 27.9761 9.00436C27.9807 8.48629 27.5234 8.01522 27.0038 8.00347C26.4596 7.99055 25.9964 8.45928 26.0046 9.01375C26.0128 9.55884 26.4444 9.98292 26.9886 9.98057Z" fill="white"/>
<path d="M6.00244 16.0211H25.9929V16.5451C25.9929 19.9037 25.9929 23.2622 25.9929 26.6208C25.9929 27.6675 25.6645 27.9988 24.6289 27.9988C18.874 27.9988 13.119 27.9988 7.36407 27.9988C6.35311 27.9988 6.00479 27.6581 6.00361 26.6643C6.00127 23.274 6.00361 19.8849 6.00361 16.4946V16.02L6.00244 16.0211ZM16.0112 18.9956C14.4689 18.9956 12.9255 18.9932 11.3833 18.9979C11.1675 18.9979 10.9458 19.0156 10.7359 19.0637C10.3207 19.16 10.0193 19.5618 10.0123 19.9882C10.0041 20.4276 10.3184 20.8435 10.7546 20.9445C10.9353 20.9868 11.1241 21.0067 11.3094 21.0067C14.4419 21.0103 17.5733 21.0103 20.7059 21.0067C20.8912 21.0067 21.08 20.9856 21.2595 20.941C21.6746 20.8399 21.9761 20.4417 21.9831 20.0153C21.9913 19.5759 21.6782 19.1577 21.2407 19.0602C21.0308 19.0132 20.8091 18.9979 20.5933 18.9968C19.0663 18.9921 17.5393 18.9944 16.0123 18.9944L16.0112 18.9956ZM15.9971 24.995V24.9985C17.6038 24.9985 19.2118 25.0044 20.8185 24.9962C21.5327 24.9926 21.9925 24.5838 21.9843 23.9929C21.9749 23.3985 21.5163 23.0156 20.795 23.005C20.5147 23.0015 20.2333 23.005 19.953 23.005C17.1136 23.005 14.2731 23.005 11.4337 23.005C11.293 23.005 11.1522 22.9979 11.0127 23.0097C10.4274 23.059 10.0181 23.4631 10.0111 23.9929C10.0029 24.5357 10.4286 24.9821 11.0361 24.9879C12.6898 25.0044 14.3434 24.9938 15.9983 24.9938L15.9971 24.995Z" fill="white"/>
</svg>
