<svg width="133" height="36" viewBox="0 0 133 36" fill="none" xmlns="http://www.w3.org/2000/svg">
<rect y="26" width="16" height="3" rx="1.5" transform="rotate(-90 0 26)" fill="#F2F3F5"/>
<rect x="10" y="26" width="16" height="3" rx="1.5" transform="rotate(-90 10 26)" fill="#F2F3F5"/>
<rect x="20" y="36" width="36" height="3" rx="1.5" transform="rotate(-90 20 36)" fill="#F2F3F5"/>
<rect x="30" y="26" width="16" height="3" rx="1.5" transform="rotate(-90 30 26)" fill="#F2F3F5"/>
<rect x="40" y="26" width="16" height="3" rx="1.5" transform="rotate(-90 40 26)" fill="#F2F3F5"/>
<rect x="50" y="26" width="16" height="3" rx="1.5" transform="rotate(-90 50 26)" fill="#F2F3F5"/>
<rect x="60" y="36" width="36" height="3" rx="1.5" transform="rotate(-90 60 36)" fill="#F2F3F5"/>
<rect x="70" y="36" width="36" height="3" rx="1.5" transform="rotate(-90 70 36)" fill="#F2F3F5"/>
<rect x="80" y="26" width="16" height="3" rx="1.5" transform="rotate(-90 80 26)" fill="#F2F3F5"/>
<rect x="90" y="36" width="36" height="3" rx="1.5" transform="rotate(-90 90 36)" fill="#F2F3F5"/>
<rect x="100" y="26" width="16" height="3" rx="1.5" transform="rotate(-90 100 26)" fill="#F2F3F5"/>
<rect x="120" y="26" width="16" height="3" rx="1.5" transform="rotate(-90 120 26)" fill="#F2F3F5"/>
<rect x="110" y="26" width="16" height="3" rx="1.5" transform="rotate(-90 110 26)" fill="#F2F3F5"/>
<rect x="130" y="26" width="16" height="3" rx="1.5" transform="rotate(-90 130 26)" fill="#F2F3F5"/>
</svg>
