<svg width="215" height="30" viewBox="0 0 215 30" fill="none" xmlns="http://www.w3.org/2000/svg">
<line opacity="0.3" x1="2.5" y1="26.7064" x2="2.5" y2="3.09797" stroke="white" stroke-opacity="0.9" stroke-width="5" stroke-linecap="round"/>
<line opacity="0.3" x1="12.5" y1="20.5653" x2="12.5" y2="9.23932" stroke="white" stroke-opacity="0.9" stroke-width="5" stroke-linecap="round"/>
<line opacity="0.3" x1="22.5" y1="27.007" x2="22.5" y2="2.79737" stroke="white" stroke-opacity="0.9" stroke-width="5" stroke-linecap="round"/>
<line opacity="0.3" x1="32.5" y1="20.5228" x2="32.5" y2="9.28201" stroke="white" stroke-opacity="0.9" stroke-width="5" stroke-linecap="round"/>
<line opacity="0.3" x1="42.5" y1="21.8706" x2="42.5" y2="7.93396" stroke="white" stroke-opacity="0.9" stroke-width="5" stroke-linecap="round"/>
<line opacity="0.3" x1="52.5" y1="18.9572" x2="52.5" y2="10.8477" stroke="white" stroke-opacity="0.9" stroke-width="5" stroke-linecap="round"/>
<line opacity="0.3" x1="62.5" y1="27.3046" x2="62.5" y2="2.49995" stroke="white" stroke-opacity="0.9" stroke-width="5" stroke-linecap="round"/>
<line opacity="0.3" x1="72.5" y1="27.0339" x2="72.5" y2="2.77073" stroke="white" stroke-opacity="0.9" stroke-width="5" stroke-linecap="round"/>
<line opacity="0.3" x1="82.5" y1="21.4368" x2="82.5" y2="8.36784" stroke="white" stroke-opacity="0.9" stroke-width="5" stroke-linecap="round"/>
<line opacity="0.3" x1="92.5" y1="24.1018" x2="92.5" y2="5.70273" stroke="white" stroke-opacity="0.9" stroke-width="5" stroke-linecap="round"/>
<line opacity="0.3" x1="102.5" y1="21.8003" x2="102.5" y2="8.00415" stroke="white" stroke-opacity="0.9" stroke-width="5" stroke-linecap="round"/>
<line opacity="0.3" x1="112.5" y1="23.5321" x2="112.5" y2="6.27251" stroke="white" stroke-opacity="0.9" stroke-width="5" stroke-linecap="round"/>
<line opacity="0.3" x1="122.5" y1="23.6719" x2="122.5" y2="6.13263" stroke="white" stroke-opacity="0.9" stroke-width="5" stroke-linecap="round"/>
<line opacity="0.3" x1="132.5" y1="26.7064" x2="132.5" y2="3.09797" stroke="white" stroke-width="5" stroke-linecap="round"/>
<line opacity="0.3" x1="142.5" y1="20.5653" x2="142.5" y2="9.23932" stroke="white" stroke-width="5" stroke-linecap="round"/>
<line opacity="0.3" x1="152.5" y1="27.007" x2="152.5" y2="2.79737" stroke="white" stroke-width="5" stroke-linecap="round"/>
<line opacity="0.3" x1="162.5" y1="20.5228" x2="162.5" y2="9.28201" stroke="white" stroke-width="5" stroke-linecap="round"/>
<line opacity="0.3" x1="172.5" y1="21.8706" x2="172.5" y2="7.93396" stroke="white" stroke-width="5" stroke-linecap="round"/>
<line opacity="0.3" x1="182.5" y1="18.9572" x2="182.5" y2="10.8477" stroke="white" stroke-width="5" stroke-linecap="round"/>
<line opacity="0.3" x1="192.5" y1="27.3046" x2="192.5" y2="2.49995" stroke="white" stroke-width="5" stroke-linecap="round"/>
<line opacity="0.3" x1="202.5" y1="27.0339" x2="202.5" y2="2.77073" stroke="white" stroke-width="5" stroke-linecap="round"/>
<line opacity="0.3" x1="212.5" y1="21.4368" x2="212.5" y2="8.36784" stroke="white" stroke-width="5" stroke-linecap="round"/>
</svg>
